<svg width="24" height="25" viewBox="0 0 24 25" fill="none" xmlns="http://www.w3.org/2000/svg">
<g id="Chart-pie">
<path id="Vector" d="M20.2718 16.3158C19.6608 17.8283 18.689 19.1683 17.4412 20.219C16.1935 21.2697 14.7076 21.9992 13.1132 22.3439C11.5189 22.6886 9.86436 22.6381 8.294 22.1967C6.72363 21.7553 5.28509 20.9364 4.1038 19.8115C2.92252 18.6866 2.03436 17.2897 1.51676 15.7428C0.99917 14.1959 0.867859 12.5458 1.13428 10.9365C1.4007 9.32718 2.05677 7.80747 3.04527 6.50988C4.03377 5.21228 5.3247 4.17621 6.80548 3.49199M15.8268 2.33097C15.0768 2.02029 14.2935 1.80283 13.4944 1.68206C12.6753 1.55826 12 2.24134 12 3.06976L12 10.0698C12 10.8982 12.6716 11.5698 13.5 11.5698L20.5 11.5698C21.3284 11.5698 22.0115 10.8945 21.8877 10.0754C21.7669 9.2763 21.5495 8.49297 21.2388 7.74293C20.7363 6.52968 19.9997 5.42728 19.0711 4.4987C18.1425 3.57011 17.0401 2.83352 15.8268 2.33097Z" stroke="#14142B" stroke-width="1.5" stroke-linecap="round"/>
</g>
</svg>
