<svg width="16" height="16" viewBox="0 0 16 16" fill="none" xmlns="http://www.w3.org/2000/svg">
<g id="Icon right">
<path id="Vector" fill-rule="evenodd" clip-rule="evenodd" d="M10.1579 1.65936L13.4986 1.65936C13.6252 1.65936 13.7465 1.70964 13.836 1.79914C13.9255 1.88864 13.9758 2.01003 13.9758 2.1366V5.47727C13.9758 5.74084 13.7622 5.95451 13.4986 5.95451C13.235 5.95451 13.0213 5.74084 13.0213 5.47727V3.28876L5.24575 11.0643C5.05938 11.2507 4.75721 11.2507 4.57084 11.0643C4.38446 10.878 4.38446 10.5758 4.57084 10.3894L12.3464 2.61384L10.1579 2.61384C9.89434 2.61384 9.68068 2.40017 9.68068 2.1366C9.68068 1.87303 9.89434 1.65936 10.1579 1.65936ZM3.47658 4.52279C2.94944 4.52279 2.5221 4.95013 2.5221 5.47727V12.1586C2.5221 12.6857 2.94944 13.1131 3.47658 13.1131H10.1579C10.6851 13.1131 11.1124 12.6857 11.1124 12.1586V6.90898C11.1124 6.64541 11.3261 6.43175 11.5896 6.43175C11.8532 6.43175 12.0669 6.64541 12.0669 6.90898V12.1586C12.0669 13.2129 11.2122 14.0676 10.1579 14.0676H3.47658C2.42229 14.0676 1.56763 13.2129 1.56763 12.1586V5.47727C1.56763 4.42298 2.42229 3.56832 3.47658 3.56832H8.7262C8.98977 3.56832 9.20344 3.78198 9.20344 4.04555C9.20344 4.30913 8.98977 4.52279 8.7262 4.52279H3.47658Z" fill="#5900B0"/>
</g>
</svg>
