<svg width="25" height="25" viewBox="0 0 25 25" fill="none" xmlns="http://www.w3.org/2000/svg">
<g id="Notification">
<path id="Vector" d="M19.8333 9.51449C19.8333 7.65413 19.0607 5.86997 17.6855 4.5545C16.3102 3.23902 14.4449 2.5 12.5 2.5C10.5551 2.5 8.68982 3.23902 7.31455 4.5545C5.93928 5.86997 5.16667 7.65413 5.16667 9.51449C5.16667 15.4484 2.71304 18.309 1.36406 19.4333C1.1615 19.6021 1.29337 20.0362 1.55706 20.0362H8.02214C8.1391 20.0362 8.24073 20.1154 8.27521 20.2271C8.49911 20.9529 9.49866 23.5 12.5 23.5C15.5013 23.5 16.5009 20.9529 16.7248 20.2271C16.7593 20.1154 16.8609 20.0362 16.9779 20.0362H23.4429C23.7066 20.0362 23.8385 19.6021 23.6359 19.4333C22.287 18.309 19.8333 15.4484 19.8333 9.51449Z" stroke="#14142B" stroke-width="1.5" stroke-linecap="round" stroke-linejoin="round"/>
</g>
</svg>
