<svg width="30" height="22" viewBox="0 0 30 22" fill="none" xmlns="http://www.w3.org/2000/svg">
<g id="Symbol" clip-path="url(#clip0_57_54)">
<path id="Vector" d="M12.3722 8.79094H17.5395C18.8788 8.79094 19.7367 10.2154 19.1113 11.3975L14.9558 18.7358L10.8037 11.3975C10.1782 10.2154 11.0362 8.79094 12.3755 8.79094" fill="#5900B0"/>
<path id="Vector_2" d="M21.423 21.6698C16.8451 21.6698 13.1219 17.9466 13.1219 13.3687V11.6594H16.8288V13.3687C16.8288 15.9033 18.8885 17.963 21.423 17.963C23.9575 17.963 26.0172 15.9033 26.0172 13.3687V0.388321H29.7241V13.3687C29.7241 17.9466 26.0009 21.6698 21.423 21.6698Z" fill="#5900B0"/>
<path id="Vector_3" d="M8.57693 21.6698C3.99907 21.6698 0.275879 17.9466 0.275879 13.3687V0.388321H3.9827V13.3687C3.9827 15.9033 6.04241 17.963 8.57693 17.963C11.1115 17.963 13.1712 15.9033 13.1712 13.3687V11.6594H16.878V13.3687C16.878 17.9466 13.1548 21.6698 8.57693 21.6698Z" fill="#5900B0"/>
<path id="Vector_4" d="M24.6683 4.47173H20.9614C20.9614 4.04931 20.6176 3.7022 20.1919 3.7022C19.7662 3.7022 19.4224 4.04603 19.4224 4.47173H15.7156C15.7156 2.00597 17.7229 -0.00134277 20.1886 -0.00134277C22.6544 -0.00134277 24.665 2.00597 24.665 4.47173" fill="#5900B0"/>
<path id="Vector_5" d="M14.2813 4.47173H10.5745C10.5745 4.04931 10.2307 3.7022 9.80496 3.7022C9.37927 3.7022 9.03543 4.04603 9.03543 4.47173H5.32861C5.33189 2.00597 7.3392 -0.00134277 9.80496 -0.00134277C12.2707 -0.00134277 14.2813 2.00597 14.2813 4.47173Z" fill="#5900B0"/>
</g>
<defs>
<clipPath id="clip0_57_54">
<rect width="29.4483" height="21.6712" fill="white" transform="translate(0.275879 -0.00131226)"/>
</clipPath>
</defs>
</svg>
