<svg width="17" height="17" viewBox="0 0 17 17" fill="none" xmlns="http://www.w3.org/2000/svg">
<g id="Settings">
<g id="Vector">
<path d="M11.1667 8.83111C11.1667 10.3039 9.97279 11.4978 8.50003 11.4978C7.02727 11.4978 5.83336 10.3039 5.83336 8.83111C5.83336 7.35835 7.02727 6.16444 8.50003 6.16444C9.97279 6.16444 11.1667 7.35835 11.1667 8.83111Z" stroke="#F7F3FA"/>
<path d="M7.35632 2.07306C7.87404 1.20908 9.12601 1.20909 9.64374 2.07306L10.1142 2.85824C10.4162 3.3621 11.0123 3.60902 11.5821 3.46623L12.47 3.24372C13.447 2.99889 14.3323 3.88416 14.0874 4.86117L13.8649 5.74908C13.7221 6.31886 13.969 6.91496 14.4729 7.2169L15.2581 7.6874C16.1221 8.20513 16.1221 9.4571 15.2581 9.97482L14.4729 10.4453C13.969 10.7473 13.7221 11.3434 13.8649 11.9131L14.0874 12.801C14.3323 13.7781 13.447 14.6633 12.47 14.4185L11.5821 14.196C11.0123 14.0532 10.4162 14.3001 10.1142 14.804L9.64373 15.5892C9.12601 16.4531 7.87404 16.4531 7.35632 15.5892L6.88581 14.804C6.58388 14.3001 5.98777 14.0532 5.41799 14.196L4.53009 14.4185C3.55308 14.6633 2.6678 13.7781 2.91264 12.801L3.13515 11.9131C3.27793 11.3434 3.03102 10.7473 2.52715 10.4453L1.74198 9.97482C0.877999 9.4571 0.878 8.20513 1.74198 7.6874L2.52716 7.21689C3.03102 6.91496 3.27793 6.31886 3.13515 5.74908L2.91264 4.86117C2.6678 3.88416 3.55308 2.99889 4.53009 3.24372L5.41799 3.46623C5.98777 3.60902 6.58388 3.3621 6.88581 2.85824L7.35632 2.07306Z" stroke="#F7F3FA"/>
</g>
</g>
</svg>
