<svg width="104" height="25" viewBox="0 0 104 25" fill="none" xmlns="http://www.w3.org/2000/svg">
<g clip-path="url(#clip0_1_950)">
<path d="M34.1239 15.7845C32.748 15.7845 31.6263 16.9039 31.6263 18.2838C31.6263 19.6638 32.745 20.7832 34.1239 20.7832C37.0671 20.7832 39.5168 18.6131 39.9505 15.7874H34.1239V15.7845ZM34.1239 24.1686C30.8815 24.1686 28.2434 21.5286 28.2434 18.2838C28.2434 15.0391 30.8815 12.399 34.1239 12.399H40.9375C42.2984 12.399 43.4081 13.5066 43.4081 14.8715C43.4081 20.005 39.2446 24.1716 34.1268 24.1716" fill="#5900B0"/>
<path d="M76.6569 4.71826H66.2001V8.10666H76.6569V4.71826Z" fill="#5900B0"/>
<path d="M52.5728 24.1686C48.3913 24.1686 44.9905 20.7653 44.9905 16.5807V4.71826H48.3764V16.5836C48.3764 18.9005 50.2578 20.7832 52.5728 20.7832C54.8879 20.7832 56.7693 18.9005 56.7693 16.5836V4.71826H60.1552V16.5836C60.1552 20.7683 56.7544 24.1716 52.5728 24.1716" fill="#5900B0"/>
<path d="M43.4081 11.0311H40.0222V23.8423H43.4081V11.0311Z" fill="#5900B0"/>
<path d="M97.8427 23.8394H94.4568V12.1476C94.4568 8.01088 97.8576 4.64642 102.039 4.64642H103.747V8.03482H102.039C99.7241 8.03482 97.8427 9.88168 97.8427 12.1506V23.8424V23.8394Z" fill="#5900B0"/>
<path d="M11.299 12.399H16.0189C17.2422 12.399 18.0259 13.7011 17.4546 14.7817L13.6619 21.4897L9.86926 14.7817C9.29797 13.7011 10.0816 12.399 11.305 12.399" fill="#5900B0"/>
<path d="M19.5664 24.1686C15.3849 24.1686 11.984 20.7653 11.984 16.5807V15.0182H15.3699V16.5807C15.3699 18.8975 17.2513 20.7802 19.5664 20.7802C21.8815 20.7802 23.7628 18.8975 23.7628 16.5807V4.71826H27.1487V16.5836C27.1487 20.7683 23.7479 24.1716 19.5664 24.1716" fill="#5900B0"/>
<path d="M7.83236 24.1686C3.65085 24.1686 0.25 20.7653 0.25 16.5807V4.71826H3.63589V16.5836C3.63589 18.9005 5.51727 20.7832 7.83236 20.7832C10.1475 20.7832 12.0288 18.9005 12.0288 16.5836V15.0212H15.4147V16.5836C15.4147 20.7683 12.0139 24.1716 7.83236 24.1716" fill="#5900B0"/>
<path d="M22.5305 8.45089H19.1446C19.1446 8.06476 18.8305 7.74747 18.4417 7.74747C18.0529 7.74747 17.7388 8.06176 17.7388 8.45089H14.3529C14.3529 6.19694 16.1864 4.36206 18.4387 4.36206C20.691 4.36206 22.5245 6.19694 22.5245 8.45089" fill="#5900B0"/>
<path d="M13.0428 8.45089H9.65693C9.65693 8.06476 9.34287 7.74747 8.95403 7.74747C8.56519 7.74747 8.25113 8.06176 8.25113 8.45089H4.86523C4.86523 6.19694 6.69876 4.36206 8.95104 4.36206C11.2033 4.36206 13.0368 6.19694 13.0368 8.45089" fill="#5900B0"/>
<path d="M76.6539 24.1686H75.5472C71.3657 24.1686 67.9648 20.8042 67.9648 16.6674V0.671326H71.3507V16.6674C71.3507 18.9364 73.2321 20.7802 75.5472 20.7802H76.6539V24.1686Z" fill="#5900B0"/>
<path d="M80.0368 12.4499H89.677C89.5544 9.9026 87.4427 7.86716 84.8644 7.86716C82.2861 7.86716 80.1684 9.8996 80.0368 12.4499ZM84.8644 24.1686C80.3329 24.1686 76.6449 20.4779 76.6449 15.943V12.7013C76.6449 8.16649 80.3329 4.47577 84.8644 4.47577C89.3958 4.47577 93.0689 8.15751 93.0689 12.6804V15.8353H80.0308V15.943C80.0308 18.6101 82.1993 20.7802 84.8644 20.7802C86.8115 20.7802 88.5613 19.6188 89.3181 17.8258L92.4348 19.1459C91.1456 22.196 88.1725 24.1686 84.8614 24.1686" fill="#5900B0"/>
<path d="M43.4142 11.6567H40.0283C40.0283 9.50154 38.2755 7.74747 36.1219 7.74747C34.5486 7.74747 33.1368 8.68437 32.5237 10.1361L29.407 8.81607C30.5526 6.11014 33.1877 4.35907 36.1249 4.35907C40.1449 4.35907 43.4172 7.63373 43.4172 11.6567" fill="#5900B0"/>
<path d="M65.1173 0.671326H61.7314V23.8394H65.1173V0.671326Z" fill="#5900B0"/>
<path d="M97.8427 4.71826H94.4568V17.4367H97.8427V4.71826Z" fill="#5900B0"/>
</g>
<defs>
<clipPath id="clip0_1_950">
<rect width="103.5" height="23.4973" fill="white" transform="translate(0.25 0.671326)"/>
</clipPath>
</defs>
</svg>
